<svg width="200" height="72" viewBox="0 0 200 72" fill="none" xmlns="http://www.w3.org/2000/svg">
<rect width="200" height="72" fill="#040403"/>
<path d="M41.0441 19.667L22.5518 41.858H39.1948L37.3456 56.6516L55.8379 34.4609H39.1948L41.0441 19.667Z" fill="#2C2C2C"/>
<path d="M82.0186 35.1354V41.9808H72.1448V51.3566H64.3867V23.5605H84.0929V30.4059H72.1448V35.1354H82.0186Z" fill="#2C2C2C"/>
<path d="M94.9123 23.5605V51.3566H87.7764V23.5605H94.9123Z" fill="#2C2C2C"/>
<path d="M106.687 29.5762C107.793 29.5762 108.871 29.8251 109.922 30.3229C111.001 30.7931 111.886 31.4016 112.578 32.1483V30.1985H119.714V51.3566H112.578V47.8305C112.052 48.992 111.25 49.9739 110.172 50.776C109.093 51.5782 107.793 51.9791 106.272 51.9791C104.695 51.9791 103.215 51.5782 101.833 50.776C100.45 49.9739 99.3156 48.7432 98.4309 47.0836C97.5734 45.3964 97.1445 43.2807 97.1445 40.7361C97.1445 38.3575 97.5734 36.3385 98.4309 34.679C99.3156 33.0196 100.478 31.7611 101.916 30.9037C103.382 30.0187 104.972 29.5762 106.687 29.5762ZM108.18 36.546C107.157 36.546 106.299 36.9608 105.608 37.7905C104.944 38.6203 104.612 39.6021 104.612 40.7361C104.612 41.8703 104.958 42.8245 105.649 43.5986C106.341 44.3731 107.254 44.7605 108.388 44.7605C108.996 44.7605 109.618 44.6081 110.255 44.304C110.89 43.9722 111.43 43.488 111.872 42.8521C112.343 42.1882 112.578 41.3446 112.578 40.3213V38.2884C111.969 37.7905 111.278 37.3757 110.503 37.0438C109.757 36.7119 108.982 36.546 108.18 36.546Z" fill="#2C2C2C"/>
<path d="M130.782 29.5762C132.165 29.5762 133.437 29.7836 134.599 30.1985C135.788 30.5857 136.742 31.125 137.461 31.8165V37.4172C136.742 36.9747 135.926 36.5598 135.014 36.1726C134.101 35.7577 133.119 35.5503 132.068 35.5503C131.404 35.5503 130.81 35.6886 130.284 35.9652C129.786 36.2141 129.537 36.6151 129.537 37.1683C129.537 37.5555 129.69 37.8459 129.994 38.0395C130.298 38.2331 130.893 38.4405 131.778 38.6618L133.064 38.9937C136.742 39.9341 138.581 41.9117 138.581 44.9264C138.581 46.3091 138.167 47.5398 137.337 48.6188C136.535 49.6698 135.47 50.4992 134.143 51.1078C132.842 51.6888 131.432 51.9791 129.911 51.9791C128.334 51.9791 126.868 51.7579 125.513 51.3152C124.158 50.8452 122.996 50.278 122.028 49.6145V44.0551C123.024 44.6634 124.144 45.1752 125.389 45.5899C126.661 46.005 127.795 46.2124 128.791 46.2124C129.593 46.2124 130.174 46.1156 130.533 45.9221C130.92 45.7285 131.114 45.3826 131.114 44.8849C131.114 44.4975 130.893 44.2072 130.45 44.0137C130.007 43.7925 129.372 43.5433 128.542 43.2668L126.426 42.6029C124.877 42.1329 123.743 41.3999 123.024 40.4042C122.305 39.3809 121.945 38.1363 121.945 36.6704C121.945 35.2046 122.332 33.9461 123.107 32.8951C123.881 31.8441 124.932 31.0282 126.26 30.4474C127.615 29.8666 129.122 29.5762 130.782 29.5762Z" fill="#2C2C2C"/>
<path d="M153.301 29.5762C155.459 29.5762 157.215 30.3091 158.57 31.775C159.953 33.2408 160.644 35.412 160.644 38.2884V51.3566H153.509L153.467 39.4085C153.467 38.3575 153.177 37.6246 152.596 37.2097C152.015 36.7672 151.365 36.546 150.646 36.546C149.872 36.546 149.222 36.7534 148.696 37.1683C148.171 37.5555 147.714 38.0257 147.327 38.5788V51.3566H140.191V23.5605H147.327V32.9366C147.991 32.0239 148.793 31.2356 149.733 30.5719C150.701 29.9081 151.891 29.5762 153.301 29.5762Z" fill="#2C2C2C"/>
<path d="M160.285 23.7217V24.6044H159.223V27.29H158.214V24.6044H157.151V23.7217H160.285Z" fill="#2C2C2C"/>
<path d="M164.426 23.668V27.3058H163.418V25.5404L162.679 26.3696H162.377L161.638 25.5404V27.3058H160.629V23.668H160.985L162.528 25.2194L164.07 23.668H164.426Z" fill="#2C2C2C"/>
</svg>
