<svg width="200" height="72" viewBox="0 0 200 72" fill="none" xmlns="http://www.w3.org/2000/svg">
<rect width="200" height="72" fill="#040403"/>
<circle cx="24.238" cy="36.238" r="18.238" fill="#2C2C2C"/>
<circle cx="24.2375" cy="36.2388" r="9.62563" fill="#2C2C2C" stroke="#040403" stroke-width="5.06612"/>
<path d="M63.5314 45.6409C69.9715 45.6409 73.8582 41.7826 73.8582 35.8532C73.8582 29.9238 69.9715 26.0654 63.5314 26.0654C57.2332 26.0654 53.3181 29.9238 53.3181 35.8532C53.3181 41.7826 57.2332 45.6409 63.5314 45.6409ZM63.5314 41.5556C59.361 41.5556 57.829 40.0803 57.829 35.8532C57.829 31.626 59.361 30.1507 63.5314 30.1507C67.7018 30.1507 69.319 31.626 69.319 35.8532C69.319 40.0803 67.7018 41.5556 63.5314 41.5556Z" fill="#2C2C2C"/>
<path d="M85.445 45.6409C91.3744 45.6409 95.1477 42.6904 95.1477 37.8675V37.4419H90.4098V37.8675C90.4098 40.364 88.9913 41.5556 85.5301 41.5556C81.3597 41.5556 79.7993 40.0803 79.7993 35.8532C79.7993 31.626 81.3597 30.1507 85.5301 30.1507C88.9913 30.1507 90.4098 31.3423 90.4098 33.8389V34.2644H95.1477V33.8389C95.1477 29.0159 91.346 26.0654 85.445 26.0654C79.1752 26.0654 75.2885 29.9238 75.2885 35.8532C75.2885 41.7826 79.1752 45.6409 85.445 45.6409Z" fill="#2C2C2C"/>
<path d="M107.574 45.3572V30.1791H114.638V26.3491H96.2541V30.1791H103.318V45.3572H107.574Z" fill="#2C2C2C"/>
<path d="M125.952 45.6409C132.392 45.6409 136.278 41.7826 136.278 35.8532C136.278 29.9238 132.392 26.0654 125.952 26.0654C119.653 26.0654 115.738 29.9238 115.738 35.8532C115.738 41.7826 119.653 45.6409 125.952 45.6409ZM125.952 41.5556C121.781 41.5556 120.249 40.0803 120.249 35.8532C120.249 31.626 121.781 30.1507 125.952 30.1507C130.122 30.1507 131.739 31.626 131.739 35.8532C131.739 40.0803 130.122 41.5556 125.952 41.5556Z" fill="#2C2C2C"/>
<path d="M142.39 45.3572V40.1087H148.064C152.461 40.1087 155.298 37.5838 155.298 33.2147C155.298 28.8457 152.461 26.3491 148.064 26.3491H138.134V45.3572H142.39ZM147.61 30.1791C149.965 30.1791 151.071 30.8884 151.071 33.2147C151.071 35.5978 149.965 36.2787 147.61 36.2787H142.39V30.1791H147.61Z" fill="#2C2C2C"/>
<path d="M166 45.6409C172.213 45.6409 175.333 42.5202 175.333 37.4135V26.3491H171.078V37.1015C171.078 40.3357 169.886 41.4989 166 41.4989C162.141 41.4989 160.921 40.3357 160.921 37.1015V26.3491H156.666V37.4135C156.666 42.5202 159.815 45.6409 166 45.6409Z" fill="#2C2C2C"/>
<path d="M186.1 45.6409C192.143 45.6409 194.555 42.8606 194.555 39.7683C194.555 37.1582 193.023 35.0872 188.767 34.4063L183.434 33.5552C181.845 33.2715 181.221 32.8743 181.221 31.7679C181.221 30.5479 182.157 29.9522 185.221 29.9522C188.994 29.9522 189.93 30.7182 189.93 32.5339V32.931H194.214V32.7608C194.214 28.7606 191.491 26.0654 185.646 26.0654C179.263 26.0654 176.937 29.0727 176.937 31.9381C176.937 35.0304 178.951 36.7327 182.355 37.2717L187.689 38.0377C189.647 38.3781 190.299 38.8037 190.299 39.9669C190.299 41.2435 189.505 41.7542 186.1 41.7542C182.242 41.7542 181.362 41.0449 181.362 39.286V38.7753H177.107V38.9455C177.107 43.3713 180.341 45.6409 186.1 45.6409Z" fill="#2C2C2C"/>
</svg>
