<svg width="200" height="72" viewBox="0 0 200 72" fill="none" xmlns="http://www.w3.org/2000/svg">
<g clip-path="url(#clip0_762_397)">
<rect width="200" height="72" fill="#040403"/>
<path d="M39.8497 56.7064H26.3926L39.8497 36.3564H53.3071L39.8497 56.7064Z" fill="#2C2C2C"/>
<path d="M34.9265 15.3506H48.7119L34.9265 36.3568H21.1411L34.9265 15.3506Z" fill="#2C2C2C"/>
<path d="M80.7602 33.0533C80.7602 34.3011 80.4593 35.4712 79.8575 36.5634C79.2782 37.6551 78.3534 38.5354 77.0832 39.2041C75.8352 39.8725 74.2531 40.2069 72.3366 40.2069H68.4253V49.1653H63.7456V25.833H72.3366C74.1416 25.833 75.6792 26.145 76.9493 26.769C78.2199 27.393 79.1667 28.2509 79.7909 29.3429C80.4372 30.4348 80.7602 31.6717 80.7602 33.0533ZM72.1357 36.4295C73.4283 36.4295 74.3866 36.14 75.0108 35.5603C75.6347 34.9588 75.9466 34.1231 75.9466 33.0533C75.9466 30.7803 74.6764 29.6438 72.1357 29.6438H68.4253V36.4295H72.1357Z" fill="#2C2C2C"/>
<path d="M87.4258 33.5211C88.0276 32.5405 88.8074 31.7717 89.7656 31.2146C90.7463 30.6575 91.8605 30.3789 93.1086 30.3789V35.2926H91.8715C90.4009 35.2926 89.2867 35.638 88.529 36.3292C87.7936 37.02 87.4258 38.2232 87.4258 39.9392V49.1651H82.7461V30.6463H87.4258V33.5211Z" fill="#2C2C2C"/>
<path d="M103.147 49.4662C101.364 49.4662 99.7592 49.0763 98.3331 48.2965C96.9069 47.4942 95.7813 46.3686 94.957 44.92C94.1547 43.4715 93.7534 41.8004 93.7534 39.906C93.7534 38.0119 94.1658 36.3404 94.9905 34.8919C95.8373 33.4433 96.9849 32.3291 98.4335 31.5491C99.8821 30.7468 101.498 30.3457 103.281 30.3457C105.063 30.3457 106.679 30.7468 108.127 31.5491C109.576 32.3291 110.712 33.4433 111.537 34.8919C112.384 36.3404 112.807 38.0119 112.807 39.906C112.807 41.8004 112.373 43.4715 111.504 44.92C110.657 46.3686 109.498 47.4942 108.027 48.2965C106.579 49.0763 104.952 49.4662 103.147 49.4662ZM103.147 45.3879C103.993 45.3879 104.785 45.1874 105.52 44.7865C106.278 44.3631 106.88 43.7389 107.325 42.9145C107.771 42.0898 107.994 41.0871 107.994 39.906C107.994 38.1455 107.526 36.7973 106.59 35.8611C105.676 34.9029 104.551 34.424 103.214 34.424C101.877 34.424 100.751 34.9029 99.8376 35.8611C98.9459 36.7973 98.5005 38.1455 98.5005 39.906C98.5005 41.6665 98.9349 43.026 99.8041 43.9842C100.695 44.92 101.81 45.3879 103.147 45.3879Z" fill="#2C2C2C"/>
<path d="M119.583 45.4547H124.608V49.1651H114.903V22.958H119.583V45.4547Z" fill="#2C2C2C"/>
<path d="M128.239 28.4401C127.415 28.4401 126.723 28.1839 126.167 27.6713C125.632 27.1365 125.364 26.479 125.364 25.6991C125.364 24.9191 125.632 24.2728 126.167 23.7603C126.723 23.2254 127.415 22.958 128.239 22.958C129.064 22.958 129.743 23.2254 130.278 23.7603C130.835 24.2728 131.114 24.9191 131.114 25.6991C131.114 26.479 130.835 27.1365 130.278 27.6713C129.743 28.1839 129.064 28.4401 128.239 28.4401ZM130.545 30.6463V49.1651H125.866V30.6463H130.545Z" fill="#2C2C2C"/>
<path d="M144.095 30.3789C146.3 30.3789 148.083 31.0809 149.443 32.4848C150.802 33.8665 151.482 35.8054 151.482 38.3012V49.1651H146.802V38.9365C146.802 37.4654 146.434 36.3402 145.699 35.56C144.963 34.7577 143.961 34.3568 142.69 34.3568C141.398 34.3568 140.373 34.7577 139.615 35.56C138.88 36.3402 138.512 37.4654 138.512 38.9365V49.1651H133.832V30.6463H138.512V32.9528C139.136 32.1506 139.927 31.5266 140.885 31.0809C141.866 30.6129 142.935 30.3789 144.095 30.3789Z" fill="#2C2C2C"/>
<path d="M171.81 39.505C171.81 40.1734 171.765 40.7752 171.676 41.31H158.138C158.249 42.6471 158.717 43.6944 159.542 44.4521C160.367 45.2099 161.38 45.5888 162.584 45.5888C164.322 45.5888 165.559 44.842 166.294 43.349H171.342C170.807 45.1319 169.782 46.6025 168.266 47.7616C166.751 48.8979 164.89 49.4662 162.684 49.4662C160.901 49.4662 159.297 49.0763 157.871 48.2965C156.467 47.4942 155.363 46.3686 154.561 44.92C153.781 43.4715 153.391 41.8004 153.391 39.906C153.391 37.9895 153.781 36.307 154.561 34.8584C155.341 33.4099 156.433 32.2956 157.837 31.5157C159.241 30.7357 160.857 30.3457 162.684 30.3457C164.444 30.3457 166.016 30.7245 167.398 31.4822C168.801 32.24 169.882 33.3207 170.64 34.7249C171.42 36.1065 171.81 37.6996 171.81 39.505ZM166.963 38.1679C166.941 36.9643 166.506 36.0061 165.659 35.2928C164.812 34.5575 163.776 34.19 162.55 34.19C161.392 34.19 160.411 34.5465 159.609 35.2597C158.829 35.9505 158.35 36.9198 158.171 38.1679H166.963Z" fill="#2C2C2C"/>
</g>
<defs>
<clipPath id="clip0_762_397">
<rect width="200" height="72" fill="white"/>
</clipPath>
</defs>
</svg>
