<svg width="2984" height="628" viewBox="0 0 2984 628" fill="none" xmlns="http://www.w3.org/2000/svg">
<g clip-path="url(#clip0_3113_1325)">
<path d="M425.741 56.3908C425.741 25.3795 400.586 0.232544 369.545 0.232544C338.526 0.232544 313.409 25.387 313.409 56.3908C313.409 87.4322 338.526 112.587 369.545 112.587C400.594 112.587 425.741 87.4322 425.741 56.3908Z" fill="white"/>
<path d="M353.679 486.45L267.253 570.51L322.533 627.337L418.773 533.732C442.373 510.801 448.162 475.089 433.024 445.865L393.926 370.401C383.887 350.946 359.979 343.347 340.486 353.394C321.068 363.501 313.439 387.409 323.546 406.864L356.292 470.163C359.085 475.584 358.049 482.207 353.679 486.45Z" fill="white"/>
<path d="M111.273 151.993C83.0472 173.16 42.9728 167.423 21.813 139.198C0.623127 110.942 6.35233 70.8978 34.608 49.7079C62.8335 28.5482 102.908 34.2849 124.068 62.5029L196.543 106.632C206.454 112.684 217.612 116.326 229.198 117.272L571.156 145.745L610.698 149.034L607.409 188.568C605.569 210.404 586.399 226.578 564.579 224.783L385.914 209.923C380.125 209.412 374.606 212.611 372.203 217.935L306.719 360.294C302.792 368.884 297.281 376.611 290.47 383.106L55.0694 608.212L0.232666 550.905L224.708 336.251C231.549 329.726 237.06 321.999 240.987 313.477L283.945 220.03C287.114 213.092 284.073 204.855 277.134 201.693C275.678 201.025 274.093 200.605 272.479 200.447L203.961 194.748C192.368 193.772 181.217 190.152 171.298 184.108L114.441 149.447C113.398 150.348 112.354 151.174 111.273 151.993ZM117.107 100.858C117.107 76.4693 97.3364 56.7061 72.9479 56.7061C48.5593 56.7061 28.7887 76.4693 28.7887 100.858C28.7887 125.254 48.5518 144.987 72.9479 144.987C97.344 144.987 117.107 125.254 117.107 100.858Z" fill="white"/>
<path d="M882.559 202.354C899.939 202.354 915.468 205.574 929.148 212.011C942.828 218.448 953.367 227.782 960.771 240.013L926.976 265.601C914.101 250.474 898.491 242.91 880.145 242.91C869.201 242.91 860.109 245.324 852.867 250.152C845.625 254.98 842.004 261.095 842.004 268.498C842.004 284.591 856.971 295.534 886.904 301.328C916.192 306.799 936.873 314.846 948.943 325.467C961.013 336.089 967.047 351.217 967.047 370.85C967.047 393.058 958.599 410.519 941.701 423.233C924.803 435.947 902.191 442.464 873.868 442.786C852.625 442.786 835.165 439.487 821.485 432.889C807.805 426.291 795.977 416.071 786 402.231L818.83 375.195C836.21 393.219 854.718 402.231 874.351 402.231C887.226 402.231 898.169 399.657 907.181 394.507C916.193 389.357 920.699 382.276 920.699 373.263C920.699 357.492 906.216 346.548 877.248 340.433C845.063 333.996 823.416 325.387 812.312 314.604C801.208 303.821 795.656 289.902 795.656 272.842C795.656 251.6 803.863 234.622 820.278 221.908C836.693 209.193 857.453 202.676 882.559 202.354ZM1144.23 202.354C1178.03 202.354 1205.63 213.458 1227.03 235.667C1248.43 257.876 1259.46 286.843 1260.1 322.57C1260.1 358.296 1249.16 387.182 1227.27 409.231C1205.39 431.28 1177.55 442.464 1143.75 442.785C1127.01 442.785 1111.4 439.245 1096.92 432.164C1082.43 425.083 1071.49 415.749 1064.09 404.162H1063.12V573.139H1019.67V208.148H1063.12V240.978H1064.09C1072.78 228.747 1084.21 219.252 1098.37 212.493C1112.53 205.734 1127.82 202.354 1144.23 202.354ZM1063.12 322.57C1063.12 346.387 1070.12 365.618 1084.12 380.263C1098.13 394.909 1116.23 402.231 1138.44 402.231C1161.61 402.231 1179.88 394.908 1193.24 380.263C1206.59 365.619 1213.43 346.388 1213.75 322.57C1213.75 298.752 1206.92 279.601 1193.24 265.117C1179.56 250.633 1161.13 243.231 1137.96 242.909C1115.1 242.909 1096.92 250.392 1083.4 265.359C1069.88 280.325 1063.12 299.396 1063.12 322.57ZM1425.22 202.354C1459.01 202.354 1487.66 214.023 1511.16 237.357C1534.65 260.691 1546.56 289.098 1546.88 322.57C1546.88 356.365 1535.13 384.691 1511.64 407.541C1488.14 430.392 1459.34 442.141 1425.22 442.785C1391.74 442.785 1363.26 431.198 1339.76 408.024C1316.27 384.85 1304.2 356.365 1303.55 322.57C1303.55 289.419 1315.22 261.255 1338.56 238.081C1361.89 214.907 1390.78 202.999 1425.22 202.354ZM1349.9 322.57C1349.9 346.066 1356.82 365.135 1370.66 379.781C1384.5 394.426 1402.69 401.908 1425.22 402.231C1448.07 402.231 1466.26 394.908 1479.77 380.263C1493.29 365.619 1500.21 346.388 1500.53 322.57C1500.53 299.074 1493.77 280.004 1480.26 265.359C1466.74 250.713 1448.23 243.231 1424.73 242.909C1401.88 242.909 1383.7 250.473 1370.18 265.6C1356.66 280.727 1349.9 299.717 1349.9 322.57ZM1714.41 202.354C1722.46 202.354 1728.89 203.32 1733.72 205.251L1731.79 252.082C1723.42 249.829 1716.18 248.702 1710.07 248.702C1667.26 248.702 1645.53 272.52 1644.89 320.156V436.992H1601.44V208.148H1644.89V243.392H1645.85C1651.65 231.161 1660.98 221.264 1673.86 213.7C1686.73 206.136 1700.25 202.354 1714.41 202.354ZM1840.42 143.936V208.148H1902.7V245.806H1840.42V355.882C1840.42 370.688 1842.51 382.115 1846.7 390.161C1850.88 398.206 1859.73 402.231 1873.25 402.231C1886.12 402.231 1896.42 399.977 1904.15 395.471V435.06C1895.78 439.566 1882.58 442.141 1864.56 442.785C1847.18 442.785 1833.74 440.129 1824.25 434.819C1814.75 429.508 1807.83 422.105 1803.49 412.61C1799.14 403.115 1796.97 388.229 1796.97 367.952V245.805H1746.76V208.147H1796.97V143.936H1840.42ZM2073.61 202.354C2106.76 202.354 2130.58 216.516 2145.06 244.84C2152.47 231.322 2162.6 220.861 2175.48 213.458C2188.35 206.056 2202.35 202.354 2217.48 202.354C2275.09 202.354 2304.06 235.505 2304.38 301.81V436.992H2260.93V307.12C2260.93 284.59 2256.91 268.255 2248.86 258.117C2240.82 247.978 2228.42 242.909 2211.69 242.909C2192.05 242.909 2177.41 248.863 2167.75 260.772C2158.1 272.681 2153.27 289.095 2153.27 310.017V436.992H2109.82V313.879C2109.82 286.843 2105.96 268.255 2098.23 258.117C2090.51 247.978 2078.28 242.909 2061.54 242.909C2043.52 242.909 2029.11 249.829 2018.33 263.669C2007.55 277.509 2002.16 295.05 2002.16 316.293V436.992H1958.7V208.148H1999.26V243.874H2000.22C2005.05 232.609 2014.63 222.873 2028.95 214.665C2043.27 206.458 2058.16 202.354 2073.61 202.354ZM2474.81 202.354C2509.89 202.354 2537.17 213.377 2556.64 235.425C2576.12 257.474 2586.01 287.809 2586.34 326.432V338.502H2402.87C2402.87 357.17 2410.36 372.86 2425.32 385.574C2440.29 398.289 2458.56 404.805 2480.12 405.127C2503.94 405.127 2524.86 393.701 2542.88 370.849L2575.71 395.954C2551.25 427.174 2517.46 442.785 2474.33 442.785C2439.25 442.785 2411 431.6 2389.6 409.231C2368.2 386.862 2357.17 357.973 2356.53 322.57C2356.53 288.453 2367.55 260.048 2389.6 237.357C2411.65 214.665 2440.05 202.999 2474.81 202.354ZM2539.99 303.741C2539.34 282.176 2533.23 265.68 2521.64 254.254C2510.05 242.829 2494.12 237.115 2473.85 237.115C2460.33 237.115 2448.18 240.414 2437.39 247.013C2426.61 253.611 2418.16 262.14 2412.05 272.601C2405.93 283.061 2402.87 293.441 2402.87 303.741H2539.99ZM2685.31 72V436.992H2641.86V72H2685.31ZM2983.67 72V436.992H2940.22V404.162H2939.26C2930.89 416.392 2919.54 425.887 2905.22 432.646C2890.9 439.406 2875.69 442.785 2859.6 442.785C2825.16 442.463 2797.23 431.037 2775.83 408.507C2754.43 385.977 2743.56 357.331 2743.24 322.57C2743.24 287.487 2753.95 258.841 2775.35 236.632C2796.75 214.424 2824.84 202.999 2859.6 202.354C2875.37 202.354 2890.49 205.734 2904.98 212.493C2919.46 219.252 2930.89 228.747 2939.26 240.978H2940.22V72H2983.67ZM2789.59 322.57C2789.59 346.066 2796.51 365.135 2810.35 379.781C2824.19 394.426 2842.38 401.908 2864.91 402.231C2887.76 402.231 2906.02 394.908 2919.7 380.263C2933.38 365.619 2940.22 346.388 2940.22 322.57C2940.22 299.074 2933.46 280.004 2919.95 265.359C2906.43 250.713 2887.92 243.231 2864.42 242.909C2841.89 242.909 2823.79 250.311 2810.11 265.117C2796.43 279.923 2789.59 299.075 2789.59 322.57Z" fill="white"/>
</g>
<defs>
<clipPath id="clip0_3113_1325">
<rect width="2984" height="628" fill="white"/>
</clipPath>
</defs>
</svg>
